<svg xmlns="http://www.w3.org/2000/svg" width="778" height="396" viewBox="0 0 778 396">
  <rect width="100%" height="100%" fill="#fbfaf6"/>
  <text x="28" y="28" font-family="system-ui, sans-serif" font-size="18" font-weight="700">Family x tag slope heatmap</text>
  <text x="28" y="50" font-family="system-ui, sans-serif" font-size="12" fill="#697176">Color = slope per year</text>
  <g font-family="system-ui, sans-serif" font-size="11" fill="#1d2528">
    <text x="188" y="104" transform="rotate(-55 188 104)" text-anchor="start">Abstraction-Learning</text><text x="222" y="104" transform="rotate(-55 222 104)" text-anchor="start">Coding</text><text x="256" y="104" transform="rotate(-55 256 104)" text-anchor="start">Commonsense</text><text x="290" y="104" transform="rotate(-55 290 104)" text-anchor="start">Format-Familiarity</text><text x="324" y="104" transform="rotate(-55 324 104)" text-anchor="start">Game-Environment</text><text x="358" y="104" transform="rotate(-55 358 104)" text-anchor="start">Instruction-Constrained</text><text x="392" y="104" transform="rotate(-55 392 104)" text-anchor="start">Logical-Control</text><text x="426" y="104" transform="rotate(-55 426 104)" text-anchor="start">Math</text><text x="460" y="104" transform="rotate(-55 460 104)" text-anchor="start">Multilingual_v1.1</text><text x="494" y="104" transform="rotate(-55 494 104)" text-anchor="start">Quantitative-Formal</text><text x="528" y="104" transform="rotate(-55 528 104)" text-anchor="start">Safety</text><text x="562" y="104" transform="rotate(-55 562 104)" text-anchor="start">Science</text><text x="596" y="104" transform="rotate(-55 596 104)" text-anchor="start">Search-Load</text><text x="630" y="104" transform="rotate(-55 630 104)" text-anchor="start">Social-Humanities</text><text x="664" y="104" transform="rotate(-55 664 104)" text-anchor="start">Social-Mind</text><text x="698" y="104" transform="rotate(-55 698 104)" text-anchor="start">Verbal-Language</text><text x="732" y="104" transform="rotate(-55 732 104)" text-anchor="start">Visual</text>
    <text x="158" y="134" text-anchor="end">Claude</text><rect x="170" y="112" width="32" height="32" fill="rgb(194,95,94)" /><rect x="204" y="112" width="32" height="32" fill="rgb(93,142,177)" /><rect x="238" y="112" width="32" height="32" fill="rgb(230,234,231)" /><rect x="272" y="112" width="32" height="32" fill="rgb(233,236,232)" /><rect x="306" y="112" width="32" height="32" fill="rgb(227,186,181)" /><rect x="340" y="112" width="32" height="32" fill="rgb(243,232,224)" /><rect x="374" y="112" width="32" height="32" fill="rgb(191,85,85)" /><rect x="408" y="112" width="32" height="32" fill="rgb(228,233,230)" /><rect x="442" y="112" width="32" height="32" fill="rgb(236,213,207)" /><rect x="476" y="112" width="32" height="32" fill="rgb(187,74,74)" /><rect x="510" y="112" width="32" height="32" fill="rgb(234,207,201)" /><rect x="544" y="112" width="32" height="32" fill="rgb(238,219,212)" /><rect x="578" y="112" width="32" height="32" fill="rgb(190,83,83)" /><rect x="612" y="112" width="32" height="32" fill="rgb(238,217,210)" /><rect x="646" y="112" width="32" height="32" fill="rgb(243,231,224)" /><rect x="680" y="112" width="32" height="32" fill="rgb(191,85,85)" /><rect x="714" y="112" width="32" height="32" fill="rgb(96,144,178)" /><text x="158" y="168" text-anchor="end">DeepSeek</text><rect x="170" y="146" width="32" height="32" fill="rgb(66,124,167)" /><rect x="204" y="146" width="32" height="32" fill="rgb(93,142,177)" /><rect x="238" y="146" width="32" height="32" fill="rgb(80,133,172)" /><rect x="272" y="146" width="32" height="32" fill="rgb(156,184,202)" /><rect x="306" y="146" width="32" height="32" fill="rgb(65,123,166)" /><rect x="340" y="146" width="32" height="32" fill="rgb(172,195,208)" /><rect x="374" y="146" width="32" height="32" fill="rgb(169,193,207)" /><rect x="408" y="146" width="32" height="32" fill="rgb(47,111,159)" /><rect x="442" y="146" width="32" height="32" fill="rgb(246,240,233)" /><rect x="476" y="146" width="32" height="32" fill="rgb(173,196,209)" /><rect x="510" y="146" width="32" height="32" fill="rgb(58,119,163)" /><rect x="544" y="146" width="32" height="32" fill="rgb(183,202,213)" /><rect x="578" y="146" width="32" height="32" fill="rgb(171,194,208)" /><rect x="612" y="146" width="32" height="32" fill="rgb(240,240,235)" /><rect x="646" y="146" width="32" height="32" fill="rgb(79,132,171)" /><rect x="680" y="146" width="32" height="32" fill="rgb(169,193,207)" /><rect x="714" y="146" width="32" height="32" fill="rgb(77,131,171)" /><text x="158" y="202" text-anchor="end">GPT</text><rect x="170" y="180" width="32" height="32" fill="rgb(241,241,235)" /><rect x="204" y="180" width="32" height="32" fill="rgb(93,142,177)" /><rect x="238" y="180" width="32" height="32" fill="rgb(127,165,191)" /><rect x="272" y="180" width="32" height="32" fill="rgb(127,165,190)" /><rect x="306" y="180" width="32" height="32" fill="rgb(158,186,203)" /><rect x="340" y="180" width="32" height="32" fill="rgb(131,168,192)" /><rect x="374" y="180" width="32" height="32" fill="rgb(245,244,237)" /><rect x="408" y="180" width="32" height="32" fill="rgb(122,162,189)" /><rect x="442" y="180" width="32" height="32" fill="rgb(138,172,195)" /><rect x="476" y="180" width="32" height="32" fill="rgb(247,244,236)" /><rect x="510" y="180" width="32" height="32" fill="rgb(146,178,198)" /><rect x="544" y="180" width="32" height="32" fill="rgb(133,169,193)" /><rect x="578" y="180" width="32" height="32" fill="rgb(246,245,237)" /><rect x="612" y="180" width="32" height="32" fill="rgb(141,174,196)" /><rect x="646" y="180" width="32" height="32" fill="rgb(131,167,192)" /><rect x="680" y="180" width="32" height="32" fill="rgb(245,244,237)" /><rect x="714" y="180" width="32" height="32" fill="rgb(104,149,181)" /><text x="158" y="236" text-anchor="end">Gemini</text><rect x="170" y="214" width="32" height="32" fill="rgb(216,155,151)" /><rect x="204" y="214" width="32" height="32" fill="rgb(93,142,177)" /><rect x="238" y="214" width="32" height="32" fill="rgb(151,181,200)" /><rect x="272" y="214" width="32" height="32" fill="rgb(172,195,208)" /><rect x="306" y="214" width="32" height="32" fill="rgb(178,199,211)" /><rect x="340" y="214" width="32" height="32" fill="rgb(188,206,215)" /><rect x="374" y="214" width="32" height="32" fill="rgb(214,150,146)" /><rect x="408" y="214" width="32" height="32" fill="rgb(167,192,206)" /><rect x="442" y="214" width="32" height="32" fill="rgb(176,198,210)" /><rect x="476" y="214" width="32" height="32" fill="rgb(211,141,138)" /><rect x="510" y="214" width="32" height="32" fill="rgb(175,197,209)" /><rect x="544" y="214" width="32" height="32" fill="rgb(196,211,218)" /><rect x="578" y="214" width="32" height="32" fill="rgb(213,148,145)" /><rect x="612" y="214" width="32" height="32" fill="rgb(173,196,209)" /><rect x="646" y="214" width="32" height="32" fill="rgb(163,189,205)" /><rect x="680" y="214" width="32" height="32" fill="rgb(214,150,146)" /><rect x="714" y="214" width="32" height="32" fill="rgb(95,143,178)" /><text x="158" y="270" text-anchor="end">Llama</text><rect x="170" y="248" width="32" height="32" fill="rgb(114,156,185)" /><rect x="204" y="248" width="32" height="32" fill="rgb(93,142,177)" /><rect x="238" y="248" width="32" height="32" fill="rgb(100,146,180)" /><rect x="272" y="248" width="32" height="32" fill="rgb(122,162,189)" /><rect x="306" y="248" width="32" height="32" fill="rgb(95,143,178)" /><rect x="340" y="248" width="32" height="32" fill="rgb(127,164,190)" /><rect x="374" y="248" width="32" height="32" fill="rgb(115,156,186)" /><rect x="408" y="248" width="32" height="32" fill="rgb(123,162,189)" /><rect x="442" y="248" width="32" height="32" fill="rgb(103,149,181)" /><rect x="476" y="248" width="32" height="32" fill="rgb(115,157,186)" /><rect x="510" y="248" width="32" height="32" fill="rgb(98,145,179)" /><rect x="544" y="248" width="32" height="32" fill="rgb(129,166,191)" /><rect x="578" y="248" width="32" height="32" fill="rgb(114,156,186)" /><rect x="612" y="248" width="32" height="32" fill="rgb(99,146,179)" /><rect x="646" y="248" width="32" height="32" fill="rgb(99,146,179)" /><rect x="680" y="248" width="32" height="32" fill="rgb(115,156,186)" /><rect x="714" y="248" width="32" height="32" fill="rgb(90,140,176)" /><text x="158" y="304" text-anchor="end">Others</text><rect x="170" y="282" width="32" height="32" fill="rgb(126,164,190)" /><rect x="204" y="282" width="32" height="32" fill="rgb(93,142,177)" /><rect x="238" y="282" width="32" height="32" fill="rgb(85,136,174)" /><rect x="272" y="282" width="32" height="32" fill="rgb(105,150,182)" /><rect x="306" y="282" width="32" height="32" fill="rgb(83,135,173)" /><rect x="340" y="282" width="32" height="32" fill="rgb(111,154,184)" /><rect x="374" y="282" width="32" height="32" fill="rgb(127,165,190)" /><rect x="408" y="282" width="32" height="32" fill="rgb(105,150,182)" /><rect x="442" y="282" width="32" height="32" fill="rgb(91,140,176)" /><rect x="476" y="282" width="32" height="32" fill="rgb(129,166,191)" /><rect x="510" y="282" width="32" height="32" fill="rgb(87,138,175)" /><rect x="544" y="282" width="32" height="32" fill="rgb(114,156,185)" /><rect x="578" y="282" width="32" height="32" fill="rgb(127,165,191)" /><rect x="612" y="282" width="32" height="32" fill="rgb(89,139,175)" /><rect x="646" y="282" width="32" height="32" fill="rgb(86,137,174)" /><rect x="680" y="282" width="32" height="32" fill="rgb(127,165,190)" /><rect x="714" y="282" width="32" height="32" fill="rgb(88,138,175)" /><text x="158" y="338" text-anchor="end">Qwen</text><rect x="170" y="316" width="32" height="32" fill="rgb(152,181,200)" /><rect x="204" y="316" width="32" height="32" fill="rgb(93,142,177)" /><rect x="238" y="316" width="32" height="32" fill="rgb(100,147,180)" /><rect x="272" y="316" width="32" height="32" fill="rgb(116,157,186)" /><rect x="306" y="316" width="32" height="32" fill="rgb(100,147,180)" /><rect x="340" y="316" width="32" height="32" fill="rgb(121,160,188)" /><rect x="374" y="316" width="32" height="32" fill="rgb(158,186,203)" /><rect x="408" y="316" width="32" height="32" fill="rgb(110,153,184)" /><rect x="442" y="316" width="32" height="32" fill="rgb(112,155,185)" /><rect x="476" y="316" width="32" height="32" fill="rgb(161,187,204)" /><rect x="510" y="316" width="32" height="32" fill="rgb(103,149,181)" /><rect x="544" y="316" width="32" height="32" fill="rgb(122,161,188)" /><rect x="578" y="316" width="32" height="32" fill="rgb(159,186,203)" /><rect x="612" y="316" width="32" height="32" fill="rgb(112,154,184)" /><rect x="646" y="316" width="32" height="32" fill="rgb(100,147,180)" /><rect x="680" y="316" width="32" height="32" fill="rgb(158,186,203)" /><rect x="714" y="316" width="32" height="32" fill="rgb(95,144,178)" />
  </g>
</svg>
