<svg xmlns="http://www.w3.org/2000/svg" width="778" height="396" viewBox="0 0 778 396">
  <rect width="100%" height="100%" fill="#fbfaf6"/>
  <text x="28" y="28" font-family="system-ui, sans-serif" font-size="18" font-weight="700">Family x tag slope heatmap</text>
  <text x="28" y="50" font-family="system-ui, sans-serif" font-size="12" fill="#697176">Color = slope per year</text>
  <g font-family="system-ui, sans-serif" font-size="11" fill="#1d2528">
    <text x="188" y="104" transform="rotate(-55 188 104)" text-anchor="start">Abstraction-Learning</text><text x="222" y="104" transform="rotate(-55 222 104)" text-anchor="start">Coding</text><text x="256" y="104" transform="rotate(-55 256 104)" text-anchor="start">Commonsense</text><text x="290" y="104" transform="rotate(-55 290 104)" text-anchor="start">Format-Familiarity</text><text x="324" y="104" transform="rotate(-55 324 104)" text-anchor="start">Game-Environment</text><text x="358" y="104" transform="rotate(-55 358 104)" text-anchor="start">Instruction-Constrained</text><text x="392" y="104" transform="rotate(-55 392 104)" text-anchor="start">Logical-Control</text><text x="426" y="104" transform="rotate(-55 426 104)" text-anchor="start">Math</text><text x="460" y="104" transform="rotate(-55 460 104)" text-anchor="start">Multilingual_v1.1</text><text x="494" y="104" transform="rotate(-55 494 104)" text-anchor="start">Quantitative-Formal</text><text x="528" y="104" transform="rotate(-55 528 104)" text-anchor="start">Safety</text><text x="562" y="104" transform="rotate(-55 562 104)" text-anchor="start">Science</text><text x="596" y="104" transform="rotate(-55 596 104)" text-anchor="start">Search-Load</text><text x="630" y="104" transform="rotate(-55 630 104)" text-anchor="start">Social-Humanities</text><text x="664" y="104" transform="rotate(-55 664 104)" text-anchor="start">Social-Mind</text><text x="698" y="104" transform="rotate(-55 698 104)" text-anchor="start">Verbal-Language</text><text x="732" y="104" transform="rotate(-55 732 104)" text-anchor="start">Visual</text>
    <text x="158" y="134" text-anchor="end">Claude</text><rect x="170" y="112" width="32" height="32" fill="rgb(194,93,92)" /><rect x="204" y="112" width="32" height="32" fill="rgb(248,245,237)" /><rect x="238" y="112" width="32" height="32" fill="rgb(214,223,224)" /><rect x="272" y="112" width="32" height="32" fill="rgb(223,229,228)" /><rect x="306" y="112" width="32" height="32" fill="rgb(229,193,187)" /><rect x="340" y="112" width="32" height="32" fill="rgb(246,240,232)" /><rect x="374" y="112" width="32" height="32" fill="rgb(190,83,83)" /><rect x="408" y="112" width="32" height="32" fill="rgb(216,224,225)" /><rect x="442" y="112" width="32" height="32" fill="rgb(242,229,221)" /><rect x="476" y="112" width="32" height="32" fill="rgb(187,74,74)" /><rect x="510" y="112" width="32" height="32" fill="rgb(241,227,220)" /><rect x="544" y="112" width="32" height="32" fill="rgb(246,239,232)" /><rect x="578" y="112" width="32" height="32" fill="rgb(189,81,80)" /><rect x="612" y="112" width="32" height="32" fill="rgb(245,237,229)" /><rect x="646" y="112" width="32" height="32" fill="rgb(242,242,236)" /><rect x="680" y="112" width="32" height="32" fill="rgb(190,83,83)" /><rect x="714" y="112" width="32" height="32" fill="rgb(84,136,173)" /><text x="158" y="168" text-anchor="end">DeepSeek</text><rect x="170" y="146" width="32" height="32" fill="rgb(68,125,167)" /><rect x="204" y="146" width="32" height="32" fill="rgb(47,111,159)" /><rect x="238" y="146" width="32" height="32" fill="rgb(70,126,168)" /><rect x="272" y="146" width="32" height="32" fill="rgb(167,192,206)" /><rect x="306" y="146" width="32" height="32" fill="rgb(77,131,171)" /><rect x="340" y="146" width="32" height="32" fill="rgb(189,206,215)" /><rect x="374" y="146" width="32" height="32" fill="rgb(181,201,212)" /><rect x="408" y="146" width="32" height="32" fill="rgb(49,113,160)" /><rect x="442" y="146" width="32" height="32" fill="rgb(247,243,235)" /><rect x="476" y="146" width="32" height="32" fill="rgb(185,204,213)" /><rect x="510" y="146" width="32" height="32" fill="rgb(66,124,166)" /><rect x="544" y="146" width="32" height="32" fill="rgb(191,207,215)" /><rect x="578" y="146" width="32" height="32" fill="rgb(183,202,212)" /><rect x="612" y="146" width="32" height="32" fill="rgb(231,234,231)" /><rect x="646" y="146" width="32" height="32" fill="rgb(68,125,167)" /><rect x="680" y="146" width="32" height="32" fill="rgb(181,201,212)" /><rect x="714" y="146" width="32" height="32" fill="rgb(67,124,167)" /><text x="158" y="202" text-anchor="end">GPT</text><rect x="170" y="180" width="32" height="32" fill="rgb(233,236,232)" /><rect x="204" y="180" width="32" height="32" fill="rgb(104,149,181)" /><rect x="238" y="180" width="32" height="32" fill="rgb(114,156,185)" /><rect x="272" y="180" width="32" height="32" fill="rgb(111,154,184)" /><rect x="306" y="180" width="32" height="32" fill="rgb(137,172,195)" /><rect x="340" y="180" width="32" height="32" fill="rgb(115,157,186)" /><rect x="374" y="180" width="32" height="32" fill="rgb(237,239,234)" /><rect x="408" y="180" width="32" height="32" fill="rgb(106,151,182)" /><rect x="442" y="180" width="32" height="32" fill="rgb(124,163,189)" /><rect x="476" y="180" width="32" height="32" fill="rgb(241,241,235)" /><rect x="510" y="180" width="32" height="32" fill="rgb(125,163,189)" /><rect x="544" y="180" width="32" height="32" fill="rgb(115,157,186)" /><rect x="578" y="180" width="32" height="32" fill="rgb(238,239,234)" /><rect x="612" y="180" width="32" height="32" fill="rgb(127,165,191)" /><rect x="646" y="180" width="32" height="32" fill="rgb(117,158,187)" /><rect x="680" y="180" width="32" height="32" fill="rgb(237,239,234)" /><rect x="714" y="180" width="32" height="32" fill="rgb(92,141,177)" /><text x="158" y="236" text-anchor="end">Gemini</text><rect x="170" y="214" width="32" height="32" fill="rgb(215,154,150)" /><rect x="204" y="214" width="32" height="32" fill="rgb(153,182,201)" /><rect x="238" y="214" width="32" height="32" fill="rgb(138,172,195)" /><rect x="272" y="214" width="32" height="32" fill="rgb(161,188,204)" /><rect x="306" y="214" width="32" height="32" fill="rgb(166,191,206)" /><rect x="340" y="214" width="32" height="32" fill="rgb(178,199,210)" /><rect x="374" y="214" width="32" height="32" fill="rgb(213,149,145)" /><rect x="408" y="214" width="32" height="32" fill="rgb(155,184,202)" /><rect x="442" y="214" width="32" height="32" fill="rgb(163,189,204)" /><rect x="476" y="214" width="32" height="32" fill="rgb(211,141,138)" /><rect x="510" y="214" width="32" height="32" fill="rgb(157,185,202)" /><rect x="544" y="214" width="32" height="32" fill="rgb(178,199,210)" /><rect x="578" y="214" width="32" height="32" fill="rgb(213,147,143)" /><rect x="612" y="214" width="32" height="32" fill="rgb(157,185,202)" /><rect x="646" y="214" width="32" height="32" fill="rgb(147,178,198)" /><rect x="680" y="214" width="32" height="32" fill="rgb(213,149,145)" /><rect x="714" y="214" width="32" height="32" fill="rgb(83,136,173)" /><text x="158" y="270" text-anchor="end">Llama</text><rect x="170" y="248" width="32" height="32" fill="rgb(100,147,180)" /><rect x="204" y="248" width="32" height="32" fill="rgb(113,155,185)" /><rect x="238" y="248" width="32" height="32" fill="rgb(88,138,175)" /><rect x="272" y="248" width="32" height="32" fill="rgb(109,153,183)" /><rect x="306" y="248" width="32" height="32" fill="rgb(81,134,172)" /><rect x="340" y="248" width="32" height="32" fill="rgb(113,155,185)" /><rect x="374" y="248" width="32" height="32" fill="rgb(101,147,180)" /><rect x="408" y="248" width="32" height="32" fill="rgb(109,153,183)" /><rect x="442" y="248" width="32" height="32" fill="rgb(91,141,176)" /><rect x="476" y="248" width="32" height="32" fill="rgb(101,147,180)" /><rect x="510" y="248" width="32" height="32" fill="rgb(85,137,174)" /><rect x="544" y="248" width="32" height="32" fill="rgb(113,155,185)" /><rect x="578" y="248" width="32" height="32" fill="rgb(101,147,180)" /><rect x="612" y="248" width="32" height="32" fill="rgb(87,138,175)" /><rect x="646" y="248" width="32" height="32" fill="rgb(87,138,175)" /><rect x="680" y="248" width="32" height="32" fill="rgb(101,147,180)" /><rect x="714" y="248" width="32" height="32" fill="rgb(79,132,171)" /><text x="158" y="304" text-anchor="end">Others</text><rect x="170" y="282" width="32" height="32" fill="rgb(116,157,186)" /><rect x="204" y="282" width="32" height="32" fill="rgb(104,149,181)" /><rect x="238" y="282" width="32" height="32" fill="rgb(74,129,170)" /><rect x="272" y="282" width="32" height="32" fill="rgb(94,142,177)" /><rect x="306" y="282" width="32" height="32" fill="rgb(73,129,169)" /><rect x="340" y="282" width="32" height="32" fill="rgb(100,147,180)" /><rect x="374" y="282" width="32" height="32" fill="rgb(117,158,187)" /><rect x="408" y="282" width="32" height="32" fill="rgb(94,142,177)" /><rect x="442" y="282" width="32" height="32" fill="rgb(81,134,172)" /><rect x="476" y="282" width="32" height="32" fill="rgb(119,159,187)" /><rect x="510" y="282" width="32" height="32" fill="rgb(76,131,171)" /><rect x="544" y="282" width="32" height="32" fill="rgb(100,146,180)" /><rect x="578" y="282" width="32" height="32" fill="rgb(118,158,187)" /><rect x="612" y="282" width="32" height="32" fill="rgb(78,132,171)" /><rect x="646" y="282" width="32" height="32" fill="rgb(76,130,170)" /><rect x="680" y="282" width="32" height="32" fill="rgb(117,158,187)" /><rect x="714" y="282" width="32" height="32" fill="rgb(77,131,171)" /><text x="158" y="338" text-anchor="end">Qwen</text><rect x="170" y="316" width="32" height="32" fill="rgb(142,175,196)" /><rect x="204" y="316" width="32" height="32" fill="rgb(100,147,180)" /><rect x="238" y="316" width="32" height="32" fill="rgb(89,139,175)" /><rect x="272" y="316" width="32" height="32" fill="rgb(103,149,181)" /><rect x="306" y="316" width="32" height="32" fill="rgb(86,137,174)" /><rect x="340" y="316" width="32" height="32" fill="rgb(108,152,183)" /><rect x="374" y="316" width="32" height="32" fill="rgb(149,179,199)" /><rect x="408" y="316" width="32" height="32" fill="rgb(97,144,178)" /><rect x="442" y="316" width="32" height="32" fill="rgb(101,147,180)" /><rect x="476" y="316" width="32" height="32" fill="rgb(151,181,200)" /><rect x="510" y="316" width="32" height="32" fill="rgb(90,140,176)" /><rect x="544" y="316" width="32" height="32" fill="rgb(107,151,183)" /><rect x="578" y="316" width="32" height="32" fill="rgb(149,180,199)" /><rect x="612" y="316" width="32" height="32" fill="rgb(100,147,180)" /><rect x="646" y="316" width="32" height="32" fill="rgb(88,139,175)" /><rect x="680" y="316" width="32" height="32" fill="rgb(149,179,199)" /><rect x="714" y="316" width="32" height="32" fill="rgb(84,136,174)" />
  </g>
</svg>
