<svg xmlns="http://www.w3.org/2000/svg" width="980" height="504" viewBox="0 0 980 504">
  <rect width="100%" height="100%" fill="#fbfaf6"/>
  <text x="28" y="28" font-family="system-ui, sans-serif" font-size="18" font-weight="700">Overall fastest-rising model tag scores</text>
  <g font-family="system-ui, sans-serif" font-size="12" fill="#1d2528">
    <text x="218" y="72" text-anchor="end">Quantitative-Formal</text><rect x="230" y="57" width="620.0" height="20" fill="#bb4a4a" opacity="0.78" /><text x="858.0" y="72">0.001589</text><text x="218" y="106" text-anchor="end">Search-Load</text><rect x="230" y="91" width="607.1" height="20" fill="#bb4a4a" opacity="0.78" /><text x="845.1" y="106">0.001556</text><text x="218" y="140" text-anchor="end">Logical-Control</text><rect x="230" y="125" width="602.5" height="20" fill="#bb4a4a" opacity="0.78" /><text x="840.5" y="140">0.001544</text><text x="218" y="174" text-anchor="end">Verbal-Language</text><rect x="230" y="159" width="602.5" height="20" fill="#bb4a4a" opacity="0.78" /><text x="840.5" y="174">0.001544</text><text x="218" y="208" text-anchor="end">Abstraction-Learning</text><rect x="230" y="193" width="568.6" height="20" fill="#bb4a4a" opacity="0.78" /><text x="806.6" y="208">0.001457</text><text x="218" y="242" text-anchor="end">Instruction-Constrained</text><rect x="230" y="227" width="252.5" height="20" fill="#bb4a4a" opacity="0.78" /><text x="490.5" y="242">0.000647</text><text x="218" y="276" text-anchor="end">Science</text><rect x="230" y="261" width="251.0" height="20" fill="#bb4a4a" opacity="0.78" /><text x="489.0" y="276">0.000643</text><text x="218" y="310" text-anchor="end">Coding</text><rect x="230" y="295" width="211.3" height="20" fill="#bb4a4a" opacity="0.78" /><text x="449.3" y="310">0.000541</text><text x="218" y="344" text-anchor="end">Multilingual_v1.1</text><rect x="230" y="329" width="210.9" height="20" fill="#bb4a4a" opacity="0.78" /><text x="448.9" y="344">0.000540</text><text x="218" y="378" text-anchor="end">Format-Familiarity</text><rect x="230" y="363" width="207.6" height="20" fill="#bb4a4a" opacity="0.78" /><text x="445.6" y="378">0.000532</text><text x="218" y="412" text-anchor="end">Social-Humanities</text><rect x="230" y="397" width="199.5" height="20" fill="#bb4a4a" opacity="0.78" /><text x="437.5" y="412">0.000511</text><text x="218" y="446" text-anchor="end">Game-Environment</text><rect x="230" y="431" width="187.3" height="20" fill="#bb4a4a" opacity="0.78" /><text x="425.3" y="446">0.000480</text>
  </g>
  <text x="230" y="488" font-family="system-ui, sans-serif" font-size="12" fill="#697176">slope per year</text>
</svg>
