<svg xmlns="http://www.w3.org/2000/svg" width="980" height="504" viewBox="0 0 980 504">
  <rect width="100%" height="100%" fill="#fbfaf6"/>
  <text x="28" y="28" font-family="system-ui, sans-serif" font-size="18" font-weight="700">Overall fastest-rising model tag scores</text>
  <g font-family="system-ui, sans-serif" font-size="12" fill="#1d2528">
    <text x="218" y="72" text-anchor="end">Quantitative-Formal</text><rect x="230" y="57" width="620.0" height="20" fill="#bb4a4a" opacity="0.78" /><text x="858.0" y="72">0.001659</text><text x="218" y="106" text-anchor="end">Search-Load</text><rect x="230" y="91" width="601.7" height="20" fill="#bb4a4a" opacity="0.78" /><text x="839.7" y="106">0.001610</text><text x="218" y="140" text-anchor="end">Logical-Control</text><rect x="230" y="125" width="597.4" height="20" fill="#bb4a4a" opacity="0.78" /><text x="835.4" y="140">0.001598</text><text x="218" y="174" text-anchor="end">Verbal-Language</text><rect x="230" y="159" width="597.4" height="20" fill="#bb4a4a" opacity="0.78" /><text x="835.4" y="174">0.001598</text><text x="218" y="208" text-anchor="end">Abstraction-Learning</text><rect x="230" y="193" width="566.0" height="20" fill="#bb4a4a" opacity="0.78" /><text x="804.0" y="208">0.001514</text><text x="218" y="242" text-anchor="end">Science</text><rect x="230" y="227" width="287.6" height="20" fill="#bb4a4a" opacity="0.78" /><text x="525.6" y="242">0.000769</text><text x="218" y="276" text-anchor="end">Instruction-Constrained</text><rect x="230" y="261" width="266.4" height="20" fill="#bb4a4a" opacity="0.78" /><text x="504.4" y="276">0.000713</text><text x="218" y="310" text-anchor="end">Multilingual_v1.1</text><rect x="230" y="295" width="220.7" height="20" fill="#bb4a4a" opacity="0.78" /><text x="458.7" y="310">0.000590</text><text x="218" y="344" text-anchor="end">Format-Familiarity</text><rect x="230" y="329" width="220.1" height="20" fill="#bb4a4a" opacity="0.78" /><text x="458.1" y="344">0.000589</text><text x="218" y="378" text-anchor="end">Social-Humanities</text><rect x="230" y="363" width="214.4" height="20" fill="#bb4a4a" opacity="0.78" /><text x="452.4" y="378">0.000574</text><text x="218" y="412" text-anchor="end">Game-Environment</text><rect x="230" y="397" width="207.3" height="20" fill="#bb4a4a" opacity="0.78" /><text x="445.3" y="412">0.000554</text><text x="218" y="446" text-anchor="end">Safety</text><rect x="230" y="431" width="199.1" height="20" fill="#bb4a4a" opacity="0.78" /><text x="437.1" y="446">0.000533</text>
  </g>
  <text x="230" y="488" font-family="system-ui, sans-serif" font-size="12" fill="#697176">slope per year</text>
</svg>
