<svg xmlns="http://www.w3.org/2000/svg" width="1160" height="620" viewBox="0 0 1160 620">
  <rect width="100%" height="100%" fill="#fbfaf6"/>
  <text x="28" y="30" font-family="system-ui, sans-serif" font-size="18" font-weight="700">Selected tag frontier over model release time</text>
  <text x="28" y="50" font-family="system-ui, sans-serif" font-size="12" fill="#697176">Each line is the best-so-far model tag score at each release date. Dots mark new frontier models.</text>
  <g font-family="system-ui, sans-serif" font-size="11" fill="#1d2528">
    <line x1="304.2" y1="58" x2="304.2" y2="546" stroke="#d8d2c5" stroke-width="1"/><text x="304.2" y="584" text-anchor="middle">2024</text><line x1="565.7" y1="58" x2="565.7" y2="546" stroke="#d8d2c5" stroke-width="1"/><text x="565.7" y="584" text-anchor="middle">2025</text><line x1="826.4" y1="58" x2="826.4" y2="546" stroke="#d8d2c5" stroke-width="1"/><text x="826.4" y="584" text-anchor="middle">2026</text>
    <line x1="82" y1="546.0" x2="915" y2="546.0" stroke="#ece7dc" stroke-width="1"/><text x="72" y="550.0" text-anchor="end">0.000</text><line x1="82" y1="424.0" x2="915" y2="424.0" stroke="#ece7dc" stroke-width="1"/><text x="72" y="428.0" text-anchor="end">0.007</text><line x1="82" y1="302.0" x2="915" y2="302.0" stroke="#ece7dc" stroke-width="1"/><text x="72" y="306.0" text-anchor="end">0.013</text><line x1="82" y1="180.0" x2="915" y2="180.0" stroke="#ece7dc" stroke-width="1"/><text x="72" y="184.0" text-anchor="end">0.020</text><line x1="82" y1="58.0" x2="915" y2="58.0" stroke="#ece7dc" stroke-width="1"/><text x="72" y="62.0" text-anchor="end">0.027</text>
    <line x1="82" y1="546" x2="915" y2="546" stroke="#697176" stroke-width="1"/>
    <line x1="82" y1="58" x2="82" y2="546" stroke="#697176" stroke-width="1"/>
    <polyline points="82.0,482.8 94.9,459.0 95.6,459.0 124.2,459.0 132.0,459.0 159.9,459.0 166.3,459.0 167.7,459.0 175.6,459.0 184.9,459.0 220.6,459.0 235.6,453.3 244.9,453.3 261.3,453.3 264.2,453.3 285.6,453.3 289.2,453.3 289.9,453.3 307.8,453.3 321.3,453.3 328.5,453.3 336.3,453.3 340.6,453.3 346.3,453.3 351.3,453.3 370.6,453.3 374.9,453.3 380.6,453.3 381.3,453.3 384.9,453.3 386.3,453.3 393.5,453.3 399.2,453.3 406.3,453.3 407.1,446.0 417.1,446.0 426.3,446.0 429.2,446.0 446.3,446.0 449.9,446.0 459.9,446.0 464.9,446.0 467.1,446.0 467.8,446.0 477.1,446.0 481.4,446.0 482.1,446.0 484.9,446.0 486.4,446.0 489.9,446.0 491.4,446.0 494.9,446.0 501.4,412.4 510.6,412.4 514.9,412.4 535.6,412.4 536.4,412.4 541.4,412.4 544.9,412.4 547.1,412.4 551.4,412.4 554.9,412.4 561.4,412.4 579.2,412.4 587.1,412.4 590.7,412.4 604.2,412.4 604.9,412.4 605.7,412.4 606.4,412.4 610.7,412.4 615.7,412.4 619.2,412.4 624.2,412.4 625.0,412.4 629.2,412.4 632.8,412.4 635.7,412.4 639.2,412.4 640.7,388.9 650.0,388.9 655.0,388.9 661.4,388.9 665.0,388.9 666.4,388.9 670.7,388.9 675.0,388.9 676.4,388.9 680.0,388.9 682.1,388.9 685.0,388.9 687.1,388.9 700.7,388.9 702.8,388.9 708.5,388.9 712.1,388.9 718.5,388.9 720.0,388.9 721.4,341.0 731.4,341.0 739.3,341.0 747.1,341.0 759.3,341.0 770.7,341.0 775.7,341.0 786.4,216.3 791.4,216.3 795.0,216.3 799.3,216.3 811.4,216.3 815.7,216.3 845.0,216.3 851.4,216.3 857.1,216.3 860.0,216.3 861.4,216.3 871.4,216.3 891.4,216.3 901.4,216.3 904.3,216.3 910.0,216.3 915.0,58.0" fill="none" stroke="#bb4a4a" stroke-width="2.6" stroke-linejoin="round" stroke-linecap="round"/><polyline points="82.0,483.1 94.9,459.8 95.6,459.8 124.2,459.8 132.0,459.8 159.9,459.8 166.3,459.8 167.7,459.8 175.6,459.8 184.9,459.8 220.6,459.8 235.6,453.1 244.9,453.1 261.3,453.1 264.2,453.1 285.6,453.1 289.2,453.1 289.9,453.1 307.8,453.1 321.3,453.1 328.5,453.1 336.3,453.1 340.6,453.1 346.3,453.1 351.3,453.1 370.6,453.1 374.9,453.1 380.6,453.1 381.3,453.1 384.9,453.1 386.3,453.1 393.5,453.1 399.2,453.1 406.3,453.1 407.1,446.4 417.1,446.4 426.3,446.4 429.2,446.4 446.3,446.4 449.9,446.4 459.9,446.4 464.9,446.4 467.1,446.4 467.8,446.4 477.1,446.4 481.4,446.4 482.1,446.4 484.9,446.4 486.4,446.4 489.9,446.4 491.4,446.4 494.9,446.4 501.4,414.9 510.6,414.9 514.9,414.9 535.6,414.9 536.4,414.9 541.4,414.9 544.9,414.9 547.1,414.9 551.4,414.9 554.9,414.9 561.4,414.9 579.2,414.9 587.1,414.9 590.7,414.9 604.2,414.9 604.9,414.9 605.7,414.9 606.4,414.9 610.7,414.9 615.7,414.9 619.2,414.9 624.2,414.9 625.0,414.9 629.2,414.9 632.8,414.9 635.7,414.9 639.2,414.9 640.7,386.0 650.0,386.0 655.0,386.0 661.4,386.0 665.0,386.0 666.4,386.0 670.7,386.0 675.0,386.0 676.4,386.0 680.0,386.0 682.1,386.0 685.0,386.0 687.1,386.0 700.7,386.0 702.8,386.0 708.5,386.0 712.1,386.0 718.5,386.0 720.0,386.0 721.4,346.4 731.4,346.4 739.3,346.4 747.1,346.4 759.3,346.4 770.7,346.4 775.7,346.4 786.4,227.2 791.4,227.2 795.0,227.2 799.3,227.2 811.4,227.2 815.7,227.2 845.0,227.2 851.4,227.2 857.1,227.2 860.0,227.2 861.4,227.2 871.4,227.2 891.4,227.2 901.4,227.2 904.3,227.2 910.0,227.2 915.0,75.0" fill="none" stroke="#2f6f9f" stroke-width="2.6" stroke-linejoin="round" stroke-linecap="round"/><polyline points="82.0,483.1 94.9,459.7 95.6,459.7 124.2,459.7 132.0,459.7 159.9,459.7 166.3,459.7 167.7,459.7 175.6,459.7 184.9,459.7 220.6,459.7 235.6,453.0 244.9,453.0 261.3,453.0 264.2,453.0 285.6,453.0 289.2,453.0 289.9,453.0 307.8,453.0 321.3,453.0 328.5,453.0 336.3,453.0 340.6,453.0 346.3,453.0 351.3,453.0 370.6,453.0 374.9,453.0 380.6,453.0 381.3,453.0 384.9,453.0 386.3,453.0 393.5,453.0 399.2,453.0 406.3,453.0 407.1,446.7 417.1,446.7 426.3,446.7 429.2,446.7 446.3,446.7 449.9,446.7 459.9,446.7 464.9,446.7 467.1,446.7 467.8,446.7 477.1,446.7 481.4,446.7 482.1,446.7 484.9,446.7 486.4,446.7 489.9,446.7 491.4,446.7 494.9,446.7 501.4,414.4 510.6,414.4 514.9,414.4 535.6,414.4 536.4,414.4 541.4,414.4 544.9,414.4 547.1,414.4 551.4,414.4 554.9,414.4 561.4,414.4 579.2,414.4 587.1,414.4 590.7,414.4 604.2,414.4 604.9,414.4 605.7,414.4 606.4,414.4 610.7,414.4 615.7,414.4 619.2,414.4 624.2,414.4 625.0,414.4 629.2,414.4 632.8,414.4 635.7,414.4 639.2,414.4 640.7,387.7 650.0,387.7 655.0,387.7 661.4,387.7 665.0,387.7 666.4,387.7 670.7,387.7 675.0,387.7 676.4,387.7 680.0,387.7 682.1,387.7 685.0,387.7 687.1,387.7 700.7,387.7 702.8,387.7 708.5,387.7 712.1,387.7 718.5,387.7 720.0,387.7 721.4,348.6 731.4,348.6 739.3,348.6 747.1,348.6 759.3,348.6 770.7,348.6 775.7,348.6 786.4,236.9 791.4,236.9 795.0,236.9 799.3,236.9 811.4,236.9 815.7,236.9 845.0,236.9 851.4,236.9 857.1,236.9 860.0,236.9 861.4,236.9 871.4,236.9 891.4,236.9 901.4,236.9 904.3,236.9 910.0,236.9 915.0,83.7" fill="none" stroke="#7c6a2f" stroke-width="2.6" stroke-linejoin="round" stroke-linecap="round"/><polyline points="82.0,483.5 94.9,460.2 95.6,460.2 124.2,460.2 132.0,460.2 159.9,460.2 166.3,460.2 167.7,460.2 175.6,460.2 184.9,460.2 220.6,460.2 235.6,453.9 244.9,453.9 261.3,453.9 264.2,453.9 285.6,453.9 289.2,453.9 289.9,453.9 307.8,453.9 321.3,453.9 328.5,453.9 336.3,453.9 340.6,453.9 346.3,453.9 351.3,453.9 370.6,453.9 374.9,453.9 380.6,453.9 381.3,453.9 384.9,453.9 386.3,453.9 393.5,453.9 399.2,453.9 406.3,453.9 407.1,447.5 417.1,447.5 426.3,447.5 429.2,447.5 446.3,447.5 449.9,447.5 459.9,447.5 464.9,447.5 467.1,447.5 467.8,447.5 477.1,447.5 481.4,447.5 482.1,447.5 484.9,447.5 486.4,447.5 489.9,447.5 491.4,447.5 494.9,447.5 501.4,414.9 510.6,414.9 514.9,414.9 535.6,414.9 536.4,414.9 541.4,414.9 544.9,414.9 547.1,414.9 551.4,414.9 554.9,414.9 561.4,414.9 579.2,414.9 587.1,414.9 590.7,414.9 604.2,414.9 604.9,414.9 605.7,414.9 606.4,414.9 610.7,414.9 615.7,414.9 619.2,414.9 624.2,414.9 625.0,414.9 629.2,414.9 632.8,414.9 635.7,414.9 639.2,414.9 640.7,391.1 650.0,391.1 655.0,391.1 661.4,391.1 665.0,391.1 666.4,391.1 670.7,391.1 675.0,391.1 676.4,391.1 680.0,391.1 682.1,391.1 685.0,391.1 687.1,391.1 700.7,391.1 702.8,391.1 708.5,391.1 712.1,391.1 718.5,391.1 720.0,391.1 721.4,345.8 731.4,345.8 739.3,345.8 747.1,345.8 759.3,345.8 770.7,345.8 775.7,345.8 786.4,225.1 791.4,225.1 795.0,225.1 799.3,225.1 811.4,225.1 815.7,225.1 845.0,225.1 851.4,225.1 857.1,225.1 860.0,225.1 861.4,225.1 871.4,225.1 891.4,225.1 901.4,225.1 904.3,225.1 910.0,225.1 915.0,71.5" fill="none" stroke="#5d7d58" stroke-width="2.6" stroke-linejoin="round" stroke-linecap="round"/><polyline points="82.0,546.0 94.9,546.0 95.6,546.0 124.2,546.0 132.0,546.0 159.9,546.0 166.3,546.0 167.7,546.0 175.6,546.0 184.9,546.0 220.6,546.0 235.6,546.0 244.9,546.0 261.3,546.0 264.2,546.0 285.6,546.0 289.2,546.0 289.9,546.0 307.8,546.0 321.3,546.0 328.5,546.0 336.3,546.0 340.6,546.0 346.3,546.0 351.3,546.0 370.6,546.0 374.9,546.0 380.6,546.0 381.3,546.0 384.9,546.0 386.3,546.0 393.5,546.0 399.2,546.0 406.3,546.0 407.1,546.0 417.1,546.0 426.3,546.0 429.2,546.0 446.3,546.0 449.9,546.0 459.9,546.0 464.9,546.0 467.1,546.0 467.8,546.0 477.1,546.0 481.4,546.0 482.1,546.0 484.9,546.0 486.4,546.0 489.9,546.0 491.4,546.0 494.9,546.0 501.4,546.0 510.6,546.0 514.9,546.0 535.6,546.0 536.4,546.0 541.4,546.0 544.9,546.0 547.1,546.0 551.4,546.0 554.9,546.0 561.4,546.0 579.2,546.0 587.1,546.0 590.7,546.0 604.2,546.0 604.9,546.0 605.7,546.0 606.4,546.0 610.7,546.0 615.7,546.0 619.2,546.0 624.2,546.0 625.0,546.0 629.2,546.0 632.8,546.0 635.7,546.0 639.2,546.0 640.7,546.0 650.0,546.0 655.0,546.0 661.4,546.0 665.0,546.0 666.4,546.0 670.7,546.0 675.0,546.0 676.4,546.0 680.0,546.0 682.1,546.0 685.0,546.0 687.1,546.0 700.7,546.0 702.8,546.0 708.5,546.0 712.1,546.0 718.5,546.0 720.0,546.0 721.4,546.0 731.4,546.0 739.3,546.0 747.1,546.0 759.3,546.0 770.7,546.0 775.7,546.0 786.4,546.0 791.4,546.0 795.0,546.0 799.3,546.0 811.4,546.0 815.7,546.0 845.0,546.0 851.4,546.0 857.1,546.0 860.0,546.0 861.4,546.0 871.4,546.0 891.4,546.0 901.4,546.0 904.3,546.0 910.0,546.0 915.0,546.0" fill="none" stroke="#8e6ab3" stroke-width="2.6" stroke-linejoin="round" stroke-linecap="round"/><polyline points="82.0,489.4 94.9,460.4 95.6,460.4 124.2,460.4 132.0,460.4 159.9,460.4 166.3,460.4 167.7,460.4 175.6,460.4 184.9,460.4 220.6,460.4 235.6,460.4 244.9,460.4 261.3,460.4 264.2,458.9 285.6,458.9 289.2,458.9 289.9,458.9 307.8,458.9 321.3,458.6 328.5,458.6 336.3,458.6 340.6,458.6 346.3,457.1 351.3,457.1 370.6,457.1 374.9,457.1 380.6,457.1 381.3,457.1 384.9,457.1 386.3,457.1 393.5,457.1 399.2,457.1 406.3,457.1 407.1,440.5 417.1,440.5 426.3,440.5 429.2,440.5 446.3,440.5 449.9,440.5 459.9,440.5 464.9,440.5 467.1,440.5 467.8,440.5 477.1,440.5 481.4,440.5 482.1,440.5 484.9,440.5 486.4,440.5 489.9,440.5 491.4,440.5 494.9,440.5 501.4,396.0 510.6,396.0 514.9,396.0 535.6,396.0 536.4,396.0 541.4,396.0 544.9,396.0 547.1,396.0 551.4,396.0 554.9,396.0 561.4,396.0 579.2,396.0 587.1,396.0 590.7,396.0 604.2,396.0 604.9,396.0 605.7,396.0 606.4,396.0 610.7,396.0 615.7,396.0 619.2,396.0 624.2,396.0 625.0,396.0 629.2,396.0 632.8,396.0 635.7,396.0 639.2,396.0 640.7,396.0 650.0,396.0 655.0,396.0 661.4,396.0 665.0,396.0 666.4,396.0 670.7,396.0 675.0,396.0 676.4,396.0 680.0,396.0 682.1,396.0 685.0,396.0 687.1,396.0 700.7,396.0 702.8,396.0 708.5,396.0 712.1,396.0 718.5,396.0 720.0,396.0 721.4,396.0 731.4,396.0 739.3,396.0 747.1,396.0 759.3,396.0 770.7,396.0 775.7,396.0 786.4,396.0 791.4,396.0 795.0,396.0 799.3,396.0 811.4,396.0 815.7,396.0 845.0,396.0 851.4,396.0 857.1,396.0 860.0,396.0 861.4,365.6 871.4,352.7 891.4,352.7 901.4,352.7 904.3,352.7 910.0,352.7 915.0,208.8" fill="none" stroke="#c06d37" stroke-width="2.6" stroke-linejoin="round" stroke-linecap="round"/>
    <circle cx="82.0" cy="482.8" r="4.2" fill="#bb4a4a" stroke="#fbfaf6" stroke-width="1.4"><title>2023-02-24 · LLaMA-13B · 0.003477</title></circle><circle cx="94.9" cy="459.0" r="4.2" fill="#bb4a4a" stroke="#fbfaf6" stroke-width="1.4"><title>2023-03-14 · gpt-4-0314 · 0.004789</title></circle><circle cx="235.6" cy="453.3" r="4.2" fill="#bb4a4a" stroke="#fbfaf6" stroke-width="1.4"><title>2023-09-27 · Mistral-7B-Instruct-v0.1 · 0.005103</title></circle><circle cx="407.1" cy="446.0" r="4.2" fill="#bb4a4a" stroke="#fbfaf6" stroke-width="1.4"><title>2024-05-24 · gemini-1.5-pro-001 · 0.005505</title></circle><circle cx="501.4" cy="412.4" r="4.2" fill="#bb4a4a" stroke="#fbfaf6" stroke-width="1.4"><title>2024-10-03 · gemini-1.5-flash-8b-001 · 0.007353</title></circle><circle cx="640.7" cy="388.9" r="4.2" fill="#bb4a4a" stroke="#fbfaf6" stroke-width="1.4"><title>2025-04-16 · o3-2025-04-16_medium · 0.008644</title></circle><circle cx="721.4" cy="341.0" r="4.2" fill="#bb4a4a" stroke="#fbfaf6" stroke-width="1.4"><title>2025-08-07 · gpt-5-2025-08-07_high · 0.011280</title></circle><circle cx="786.4" cy="216.3" r="4.2" fill="#bb4a4a" stroke="#fbfaf6" stroke-width="1.4"><title>2025-11-06 · kimi-k2-thinking · 0.018141</title></circle><circle cx="915.0" cy="58.0" r="4.2" fill="#bb4a4a" stroke="#fbfaf6" stroke-width="1.4"><title>2026-05-05 · Claude Mythos Preview · 0.026853</title></circle><circle cx="82.0" cy="483.1" r="4.2" fill="#2f6f9f" stroke="#fbfaf6" stroke-width="1.4"><title>2023-02-24 · LLaMA-13B · 0.003463</title></circle><circle cx="94.9" cy="459.8" r="4.2" fill="#2f6f9f" stroke="#fbfaf6" stroke-width="1.4"><title>2023-03-14 · gpt-4-0314 · 0.004741</title></circle><circle cx="235.6" cy="453.1" r="4.2" fill="#2f6f9f" stroke="#fbfaf6" stroke-width="1.4"><title>2023-09-27 · Mistral-7B-Instruct-v0.1 · 0.005114</title></circle><circle cx="407.1" cy="446.4" r="4.2" fill="#2f6f9f" stroke="#fbfaf6" stroke-width="1.4"><title>2024-05-24 · gemini-1.5-pro-001 · 0.005482</title></circle><circle cx="501.4" cy="414.9" r="4.2" fill="#2f6f9f" stroke="#fbfaf6" stroke-width="1.4"><title>2024-10-03 · gemini-1.5-flash-8b-001 · 0.007214</title></circle><circle cx="640.7" cy="386.0" r="4.2" fill="#2f6f9f" stroke="#fbfaf6" stroke-width="1.4"><title>2025-04-16 · o3-2025-04-16_medium · 0.008803</title></circle><circle cx="721.4" cy="346.4" r="4.2" fill="#2f6f9f" stroke="#fbfaf6" stroke-width="1.4"><title>2025-08-07 · gpt-5-2025-08-07_high · 0.010984</title></circle><circle cx="786.4" cy="227.2" r="4.2" fill="#2f6f9f" stroke="#fbfaf6" stroke-width="1.4"><title>2025-11-06 · kimi-k2-thinking · 0.017545</title></circle><circle cx="915.0" cy="75.0" r="4.2" fill="#2f6f9f" stroke="#fbfaf6" stroke-width="1.4"><title>2026-05-05 · Claude Mythos Preview · 0.025916</title></circle><circle cx="82.0" cy="483.1" r="4.2" fill="#7c6a2f" stroke="#fbfaf6" stroke-width="1.4"><title>2023-02-24 · LLaMA-13B · 0.003460</title></circle><circle cx="94.9" cy="459.7" r="4.2" fill="#7c6a2f" stroke="#fbfaf6" stroke-width="1.4"><title>2023-03-14 · gpt-4-0314 · 0.004749</title></circle><circle cx="235.6" cy="453.0" r="4.2" fill="#7c6a2f" stroke="#fbfaf6" stroke-width="1.4"><title>2023-09-27 · Mistral-7B-Instruct-v0.1 · 0.005117</title></circle><circle cx="407.1" cy="446.7" r="4.2" fill="#7c6a2f" stroke="#fbfaf6" stroke-width="1.4"><title>2024-05-24 · gemini-1.5-pro-001 · 0.005464</title></circle><circle cx="501.4" cy="414.4" r="4.2" fill="#7c6a2f" stroke="#fbfaf6" stroke-width="1.4"><title>2024-10-03 · gemini-1.5-flash-8b-001 · 0.007244</title></circle><circle cx="640.7" cy="387.7" r="4.2" fill="#7c6a2f" stroke="#fbfaf6" stroke-width="1.4"><title>2025-04-16 · o3-2025-04-16_medium · 0.008713</title></circle><circle cx="721.4" cy="348.6" r="4.2" fill="#7c6a2f" stroke="#fbfaf6" stroke-width="1.4"><title>2025-08-07 · gpt-5-2025-08-07_high · 0.010860</title></circle><circle cx="786.4" cy="236.9" r="4.2" fill="#7c6a2f" stroke="#fbfaf6" stroke-width="1.4"><title>2025-11-06 · kimi-k2-thinking · 0.017008</title></circle><circle cx="915.0" cy="83.7" r="4.2" fill="#7c6a2f" stroke="#fbfaf6" stroke-width="1.4"><title>2026-05-05 · Claude Mythos Preview · 0.025439</title></circle><circle cx="82.0" cy="483.5" r="4.2" fill="#5d7d58" stroke="#fbfaf6" stroke-width="1.4"><title>2023-02-24 · LLaMA-13B · 0.003438</title></circle><circle cx="94.9" cy="460.2" r="4.2" fill="#5d7d58" stroke="#fbfaf6" stroke-width="1.4"><title>2023-03-14 · gpt-4-0314 · 0.004719</title></circle><circle cx="235.6" cy="453.9" r="4.2" fill="#5d7d58" stroke="#fbfaf6" stroke-width="1.4"><title>2023-09-27 · Mistral-7B-Instruct-v0.1 · 0.005068</title></circle><circle cx="407.1" cy="447.5" r="4.2" fill="#5d7d58" stroke="#fbfaf6" stroke-width="1.4"><title>2024-05-24 · gemini-1.5-pro-001 · 0.005421</title></circle><circle cx="501.4" cy="414.9" r="4.2" fill="#5d7d58" stroke="#fbfaf6" stroke-width="1.4"><title>2024-10-03 · gemini-1.5-flash-8b-001 · 0.007214</title></circle><circle cx="640.7" cy="391.1" r="4.2" fill="#5d7d58" stroke="#fbfaf6" stroke-width="1.4"><title>2025-04-16 · o3-2025-04-16_medium · 0.008525</title></circle><circle cx="721.4" cy="345.8" r="4.2" fill="#5d7d58" stroke="#fbfaf6" stroke-width="1.4"><title>2025-08-07 · gpt-5-2025-08-07_high · 0.011018</title></circle><circle cx="786.4" cy="225.1" r="4.2" fill="#5d7d58" stroke="#fbfaf6" stroke-width="1.4"><title>2025-11-06 · kimi-k2-thinking · 0.017660</title></circle><circle cx="915.0" cy="71.5" r="4.2" fill="#5d7d58" stroke="#fbfaf6" stroke-width="1.4"><title>2026-05-05 · Claude Mythos Preview · 0.026110</title></circle><circle cx="82.0" cy="546.0" r="4.2" fill="#8e6ab3" stroke="#fbfaf6" stroke-width="1.4"><title>2023-02-24 · LLaMA-13B · 0.000000</title></circle><circle cx="82.0" cy="489.4" r="4.2" fill="#c06d37" stroke="#fbfaf6" stroke-width="1.4"><title>2023-02-24 · LLaMA-13B · 0.003113</title></circle><circle cx="94.9" cy="460.4" r="4.2" fill="#c06d37" stroke="#fbfaf6" stroke-width="1.4"><title>2023-03-14 · gpt-4-0314 · 0.004713</title></circle><circle cx="264.2" cy="458.9" r="4.2" fill="#c06d37" stroke="#fbfaf6" stroke-width="1.4"><title>2023-11-06 · gpt-3.5-turbo-1106 · 0.004794</title></circle><circle cx="321.3" cy="458.6" r="4.2" fill="#c06d37" stroke="#fbfaf6" stroke-width="1.4"><title>2024-01-25 · gpt-4-0125-preview · 0.004810</title></circle><circle cx="346.3" cy="457.1" r="4.2" fill="#c06d37" stroke="#fbfaf6" stroke-width="1.4"><title>2024-02-29 · claude-3-opus-20240229 · 0.004892</title></circle><circle cx="407.1" cy="440.5" r="4.2" fill="#c06d37" stroke="#fbfaf6" stroke-width="1.4"><title>2024-05-24 · gemini-1.5-pro-001 · 0.005806</title></circle><circle cx="501.4" cy="396.0" r="4.2" fill="#c06d37" stroke="#fbfaf6" stroke-width="1.4"><title>2024-10-03 · gemini-1.5-flash-8b-001 · 0.008257</title></circle><circle cx="861.4" cy="365.6" r="4.2" fill="#c06d37" stroke="#fbfaf6" stroke-width="1.4"><title>2026-02-19 · gemini-3.1-pro-preview_high · 0.009928</title></circle><circle cx="871.4" cy="352.7" r="4.2" fill="#c06d37" stroke="#fbfaf6" stroke-width="1.4"><title>2026-03-05 · gpt-5.4-2026-03-05_xhigh · 0.010635</title></circle><circle cx="915.0" cy="208.8" r="4.2" fill="#c06d37" stroke="#fbfaf6" stroke-width="1.4"><title>2026-05-05 · Claude Mythos Preview · 0.018554</title></circle>
    <line x1="939" y1="58" x2="963" y2="58" stroke="#bb4a4a" stroke-width="3"/><text x="971" y="62">Quantitative-Formal</text><text x="971" y="76" font-size="10" fill="#697176">0.026853 · Claude Mythos Preview</text><line x1="939" y1="84" x2="963" y2="84" stroke="#2f6f9f" stroke-width="3"/><text x="971" y="88">Logical-Control</text><text x="971" y="102" font-size="10" fill="#697176">0.025916 · Claude Mythos Preview</text><line x1="939" y1="110" x2="963" y2="110" stroke="#7c6a2f" stroke-width="3"/><text x="971" y="114">Abstraction-Learning</text><text x="971" y="128" font-size="10" fill="#697176">0.025439 · Claude Mythos Preview</text><line x1="939" y1="136" x2="963" y2="136" stroke="#5d7d58" stroke-width="3"/><text x="971" y="140">Search-Load</text><text x="971" y="154" font-size="10" fill="#697176">0.026110 · Claude Mythos Preview</text><line x1="939" y1="162" x2="963" y2="162" stroke="#8e6ab3" stroke-width="3"/><text x="971" y="166">Coding</text><text x="971" y="180" font-size="10" fill="#697176">0.000000 · LLaMA-13B</text><line x1="939" y1="188" x2="963" y2="188" stroke="#c06d37" stroke-width="3"/><text x="971" y="192">Science</text><text x="971" y="206" font-size="10" fill="#697176">0.018554 · Claude Mythos Preview</text>
    <text x="498.5" y="608" text-anchor="middle">release date</text>
    <text x="18" y="302.0" transform="rotate(-90 18 302.0)" text-anchor="middle">frontier tag score</text>
  </g>
</svg>
