<svg xmlns="http://www.w3.org/2000/svg" width="1160" height="620" viewBox="0 0 1160 620">
  <rect width="100%" height="100%" fill="#fbfaf6"/>
  <text x="28" y="30" font-family="system-ui, sans-serif" font-size="18" font-weight="700">Selected tag frontier over model release time</text>
  <text x="28" y="50" font-family="system-ui, sans-serif" font-size="12" fill="#697176">Each line is the best-so-far model tag score at each release date. Dots mark new frontier models.</text>
  <g font-family="system-ui, sans-serif" font-size="11" fill="#1d2528">
    <line x1="304.2" y1="58" x2="304.2" y2="546" stroke="#d8d2c5" stroke-width="1"/><text x="304.2" y="584" text-anchor="middle">2024</text><line x1="565.7" y1="58" x2="565.7" y2="546" stroke="#d8d2c5" stroke-width="1"/><text x="565.7" y="584" text-anchor="middle">2025</text><line x1="826.4" y1="58" x2="826.4" y2="546" stroke="#d8d2c5" stroke-width="1"/><text x="826.4" y="584" text-anchor="middle">2026</text>
    <line x1="82" y1="546.0" x2="915" y2="546.0" stroke="#ece7dc" stroke-width="1"/><text x="72" y="550.0" text-anchor="end">0.001</text><line x1="82" y1="424.0" x2="915" y2="424.0" stroke="#ece7dc" stroke-width="1"/><text x="72" y="428.0" text-anchor="end">0.007</text><line x1="82" y1="302.0" x2="915" y2="302.0" stroke="#ece7dc" stroke-width="1"/><text x="72" y="306.0" text-anchor="end">0.013</text><line x1="82" y1="180.0" x2="915" y2="180.0" stroke="#ece7dc" stroke-width="1"/><text x="72" y="184.0" text-anchor="end">0.020</text><line x1="82" y1="58.0" x2="915" y2="58.0" stroke="#ece7dc" stroke-width="1"/><text x="72" y="62.0" text-anchor="end">0.026</text>
    <line x1="82" y1="546" x2="915" y2="546" stroke="#697176" stroke-width="1"/>
    <line x1="82" y1="58" x2="82" y2="546" stroke="#697176" stroke-width="1"/>
    <polyline points="82.0,510.3 94.9,484.7 95.6,484.7 124.2,484.7 132.0,484.7 159.9,484.7 166.3,484.7 167.7,484.7 175.6,484.7 184.9,484.7 220.6,484.7 235.6,484.7 244.9,484.7 261.3,484.7 264.2,484.7 285.6,484.7 289.2,484.7 289.9,484.7 307.8,484.7 321.3,484.7 328.5,484.7 336.3,484.7 340.6,484.7 346.3,484.7 351.3,484.7 370.6,484.7 374.9,484.7 380.6,484.7 381.3,484.7 384.9,484.7 386.3,484.7 393.5,484.7 399.2,484.7 406.3,484.7 407.1,478.6 417.1,478.6 426.3,478.6 429.2,478.6 446.3,478.6 449.9,478.6 459.9,476.4 464.9,476.4 467.1,476.4 467.8,476.4 477.1,476.4 481.4,474.6 482.1,474.6 484.9,474.6 486.4,474.6 489.9,474.6 491.4,474.6 494.9,474.6 501.4,440.3 510.6,440.3 514.9,440.3 535.6,440.3 536.4,440.3 541.4,440.3 544.9,440.3 547.1,440.3 551.4,440.3 554.9,440.3 561.4,440.3 579.2,440.3 587.1,440.3 590.7,440.3 604.2,440.3 604.9,440.3 605.7,440.3 606.4,440.3 610.7,440.3 615.7,440.3 619.2,440.3 624.2,440.3 625.0,440.3 629.2,440.3 632.8,440.3 635.7,440.3 639.2,440.3 640.7,422.2 650.0,422.2 655.0,422.2 661.4,422.2 665.0,422.2 666.4,422.2 670.7,422.2 675.0,422.2 676.4,422.2 680.0,422.2 682.1,422.2 685.0,422.2 687.1,422.2 700.7,422.2 702.8,422.2 708.5,422.2 712.1,422.2 718.5,422.2 720.0,422.2 721.4,357.5 731.4,357.5 739.3,357.5 747.1,357.5 759.3,357.5 770.7,357.5 775.7,357.5 786.4,232.5 791.4,232.5 795.0,232.5 799.3,232.5 811.4,232.5 815.7,232.5 845.0,232.5 851.4,232.5 857.1,232.5 860.0,232.5 861.4,232.5 871.4,232.5 891.4,232.5 901.4,232.5 904.3,232.5 910.0,232.5 915.0,58.0" fill="none" stroke="#bb4a4a" stroke-width="2.6" stroke-linejoin="round" stroke-linecap="round"/><polyline points="82.0,510.0 94.9,484.9 95.6,484.9 124.2,484.9 132.0,484.9 159.9,484.9 166.3,484.9 167.7,484.9 175.6,484.9 184.9,484.9 220.6,484.9 235.6,484.9 244.9,484.9 261.3,484.9 264.2,484.9 285.6,484.9 289.2,484.9 289.9,484.9 307.8,484.9 321.3,484.9 328.5,484.9 336.3,484.9 340.6,484.9 346.3,484.9 351.3,484.9 370.6,484.9 374.9,484.9 380.6,484.9 381.3,484.9 384.9,484.9 386.3,484.9 393.5,484.9 399.2,484.9 406.3,484.9 407.1,478.0 417.1,478.0 426.3,478.0 429.2,478.0 446.3,478.0 449.9,478.0 459.9,476.8 464.9,476.8 467.1,476.8 467.8,476.8 477.1,476.8 481.4,474.8 482.1,474.8 484.9,474.8 486.4,474.8 489.9,474.8 491.4,474.8 494.9,474.8 501.4,441.7 510.6,441.7 514.9,441.7 535.6,441.7 536.4,441.7 541.4,441.7 544.9,441.7 547.1,441.7 551.4,441.7 554.9,441.7 561.4,441.7 579.2,441.7 587.1,441.7 590.7,441.7 604.2,441.7 604.9,441.7 605.7,441.7 606.4,441.7 610.7,441.7 615.7,441.7 619.2,441.7 624.2,441.7 625.0,441.7 629.2,441.7 632.8,441.7 635.7,441.7 639.2,441.7 640.7,417.5 650.0,417.5 655.0,417.5 661.4,417.5 665.0,417.5 666.4,417.5 670.7,417.5 675.0,417.5 676.4,417.5 680.0,417.5 682.1,417.5 685.0,417.5 687.1,417.5 700.7,417.5 702.8,417.5 708.5,417.5 712.1,417.5 718.5,417.5 720.0,417.5 721.4,361.5 731.4,361.5 739.3,361.5 747.1,361.5 759.3,361.5 770.7,361.5 775.7,361.5 786.4,240.9 791.4,240.9 795.0,240.9 799.3,240.9 811.4,240.9 815.7,240.9 845.0,240.9 851.4,240.9 857.1,240.9 860.0,240.9 861.4,240.9 871.4,240.9 891.4,240.9 901.4,240.9 904.3,240.9 910.0,240.9 915.0,71.8" fill="none" stroke="#2f6f9f" stroke-width="2.6" stroke-linejoin="round" stroke-linecap="round"/><polyline points="82.0,510.2 94.9,484.8 95.6,484.8 124.2,484.8 132.0,484.8 159.9,484.8 166.3,484.8 167.7,484.8 175.6,484.8 184.9,484.8 220.6,484.8 235.6,484.8 244.9,484.8 261.3,484.8 264.2,484.8 285.6,484.8 289.2,484.8 289.9,484.8 307.8,484.8 321.3,484.8 328.5,484.8 336.3,484.8 340.6,484.8 346.3,484.8 351.3,484.8 370.6,484.8 374.9,484.8 380.6,484.8 381.3,484.8 384.9,484.8 386.3,484.8 393.5,484.8 399.2,484.8 406.3,484.8 407.1,478.5 417.1,478.5 426.3,478.5 429.2,478.5 446.3,478.5 449.9,478.5 459.9,477.5 464.9,477.5 467.1,477.5 467.8,477.5 477.1,477.5 481.4,475.4 482.1,475.4 484.9,475.4 486.4,475.4 489.9,475.4 491.4,475.4 494.9,475.4 501.4,441.3 510.6,441.3 514.9,441.3 535.6,441.3 536.4,441.3 541.4,441.3 544.9,441.3 547.1,441.3 551.4,441.3 554.9,441.3 561.4,441.3 579.2,441.3 587.1,441.3 590.7,441.3 604.2,441.3 604.9,441.3 605.7,441.3 606.4,441.3 610.7,441.3 615.7,441.3 619.2,441.3 624.2,441.3 625.0,441.3 629.2,441.3 632.8,441.3 635.7,441.3 639.2,441.3 640.7,419.5 650.0,419.5 655.0,419.5 661.4,419.5 665.0,419.5 666.4,419.5 670.7,419.5 675.0,419.5 676.4,419.5 680.0,419.5 682.1,419.5 685.0,419.5 687.1,419.5 700.7,419.5 702.8,419.5 708.5,419.5 712.1,419.5 718.5,419.5 720.0,419.5 721.4,364.1 731.4,364.1 739.3,364.1 747.1,364.1 759.3,364.1 770.7,364.1 775.7,364.1 786.4,252.1 791.4,252.1 795.0,252.1 799.3,252.1 811.4,252.1 815.7,250.9 845.0,250.9 851.4,250.9 857.1,250.9 860.0,250.9 861.4,250.9 871.4,250.9 891.4,250.9 901.4,250.9 904.3,250.9 910.0,250.9 915.0,81.6" fill="none" stroke="#7c6a2f" stroke-width="2.6" stroke-linejoin="round" stroke-linecap="round"/><polyline points="82.0,510.6 94.9,485.4 95.6,485.4 124.2,485.4 132.0,485.4 159.9,485.4 166.3,485.4 167.7,485.4 175.6,485.4 184.9,485.4 220.6,485.4 235.6,485.4 244.9,485.4 261.3,485.4 264.2,485.4 285.6,485.4 289.2,485.4 289.9,485.4 307.8,485.4 321.3,485.4 328.5,485.4 336.3,485.4 340.6,485.4 346.3,485.4 351.3,485.4 370.6,485.4 374.9,485.4 380.6,485.4 381.3,485.4 384.9,485.4 386.3,485.4 393.5,485.4 399.2,485.4 406.3,485.4 407.1,479.4 417.1,479.4 426.3,479.4 429.2,479.4 446.3,479.4 449.9,479.4 459.9,477.3 464.9,477.3 467.1,477.3 467.8,477.3 477.1,477.3 481.4,475.4 482.1,475.4 484.9,475.4 486.4,475.4 489.9,475.4 491.4,475.4 494.9,475.4 501.4,441.9 510.6,441.9 514.9,441.9 535.6,441.9 536.4,441.9 541.4,441.9 544.9,441.9 547.1,441.9 551.4,441.9 554.9,441.9 561.4,441.9 579.2,441.9 587.1,441.9 590.7,441.9 604.2,441.9 604.9,441.9 605.7,441.9 606.4,441.9 610.7,441.9 615.7,441.9 619.2,441.9 624.2,441.9 625.0,441.9 629.2,441.9 632.8,441.9 635.7,441.9 639.2,441.9 640.7,423.3 650.0,423.3 655.0,423.3 661.4,423.3 665.0,423.3 666.4,423.3 670.7,423.3 675.0,423.3 676.4,423.3 680.0,423.3 682.1,423.3 685.0,423.3 687.1,423.3 700.7,423.3 702.8,423.3 708.5,423.3 712.1,423.3 718.5,423.3 720.0,423.3 721.4,360.9 731.4,360.9 739.3,360.9 747.1,360.9 759.3,360.9 770.7,360.9 775.7,360.9 786.4,238.7 791.4,238.7 795.0,238.7 799.3,238.7 811.4,238.7 815.7,238.7 845.0,238.7 851.4,238.7 857.1,238.7 860.0,238.7 861.4,238.7 871.4,238.7 891.4,238.7 901.4,238.7 904.3,238.7 910.0,238.7 915.0,67.9" fill="none" stroke="#5d7d58" stroke-width="2.6" stroke-linejoin="round" stroke-linecap="round"/><polyline points="82.0,546.0 94.9,522.1 95.6,522.1 124.2,522.1 132.0,522.1 159.9,522.1 166.3,522.1 167.7,522.1 175.6,522.1 184.9,522.1 220.6,522.1 235.6,522.1 244.9,522.1 261.3,522.1 264.2,522.1 285.6,522.1 289.2,522.1 289.9,522.1 307.8,522.1 321.3,520.3 328.5,520.3 336.3,520.3 340.6,520.3 346.3,520.3 351.3,520.3 370.6,520.3 374.9,520.3 380.6,520.3 381.3,520.3 384.9,516.6 386.3,516.6 393.5,516.6 399.2,516.6 406.3,516.6 407.1,516.6 417.1,516.6 426.3,516.6 429.2,516.6 446.3,516.6 449.9,516.6 459.9,514.6 464.9,514.6 467.1,514.6 467.8,514.6 477.1,514.6 481.4,514.6 482.1,514.6 484.9,514.6 486.4,494.3 489.9,494.3 491.4,494.3 494.9,494.3 501.4,441.2 510.6,441.2 514.9,441.2 535.6,441.2 536.4,441.2 541.4,441.2 544.9,441.2 547.1,441.2 551.4,441.2 554.9,441.2 561.4,441.2 579.2,441.2 587.1,441.2 590.7,441.2 604.2,441.2 604.9,441.2 605.7,441.2 606.4,441.2 610.7,441.2 615.7,441.2 619.2,441.2 624.2,441.2 625.0,441.2 629.2,441.2 632.8,441.2 635.7,441.2 639.2,441.2 640.7,441.2 650.0,441.2 655.0,441.2 661.4,441.2 665.0,441.2 666.4,441.2 670.7,441.2 675.0,441.2 676.4,441.2 680.0,441.2 682.1,441.2 685.0,441.2 687.1,441.2 700.7,441.2 702.8,441.2 708.5,441.2 712.1,441.2 718.5,441.2 720.0,441.2 721.4,441.2 731.4,441.2 739.3,441.2 747.1,441.2 759.3,441.2 770.7,441.2 775.7,441.2 786.4,441.2 791.4,441.2 795.0,441.2 799.3,441.2 811.4,441.2 815.7,441.2 845.0,441.2 851.4,441.2 857.1,441.2 860.0,441.2 861.4,435.0 871.4,435.0 891.4,435.0 901.4,435.0 904.3,435.0 910.0,435.0 915.0,261.9" fill="none" stroke="#8e6ab3" stroke-width="2.6" stroke-linejoin="round" stroke-linecap="round"/><polyline points="82.0,518.4 94.9,488.7 95.6,488.7 124.2,488.7 132.0,488.7 159.9,488.7 166.3,488.7 167.7,488.7 175.6,488.7 184.9,487.7 220.6,487.7 235.6,487.7 244.9,487.7 261.3,487.7 264.2,487.7 285.6,487.7 289.2,487.7 289.9,487.7 307.8,487.7 321.3,487.7 328.5,487.7 336.3,487.7 340.6,487.7 346.3,487.7 351.3,487.7 370.6,487.7 374.9,487.7 380.6,487.7 381.3,487.7 384.9,487.7 386.3,487.7 393.5,487.7 399.2,487.7 406.3,487.7 407.1,477.7 417.1,477.7 426.3,477.7 429.2,477.7 446.3,477.7 449.9,477.7 459.9,475.5 464.9,475.5 467.1,475.5 467.8,475.5 477.1,475.5 481.4,475.5 482.1,475.5 484.9,475.5 486.4,475.5 489.9,475.5 491.4,475.5 494.9,475.5 501.4,431.2 510.6,431.2 514.9,431.2 535.6,431.2 536.4,431.2 541.4,431.2 544.9,431.2 547.1,431.2 551.4,431.2 554.9,431.2 561.4,431.2 579.2,431.2 587.1,431.2 590.7,431.2 604.2,431.2 604.9,431.2 605.7,431.2 606.4,431.2 610.7,431.2 615.7,431.2 619.2,431.2 624.2,431.2 625.0,431.2 629.2,431.2 632.8,431.2 635.7,431.2 639.2,431.2 640.7,431.2 650.0,431.2 655.0,431.2 661.4,431.2 665.0,431.2 666.4,431.2 670.7,431.2 675.0,431.2 676.4,431.2 680.0,431.2 682.1,431.2 685.0,431.2 687.1,431.2 700.7,431.2 702.8,431.2 708.5,431.2 712.1,431.2 718.5,431.2 720.0,431.2 721.4,431.2 731.4,431.2 739.3,431.2 747.1,431.2 759.3,431.2 770.7,431.2 775.7,431.2 786.4,431.2 791.4,431.2 795.0,431.2 799.3,431.2 811.4,431.2 815.7,431.2 845.0,431.2 851.4,431.2 857.1,431.2 860.0,431.2 861.4,400.6 871.4,400.6 891.4,400.6 901.4,400.6 904.3,400.6 910.0,400.6 915.0,246.6" fill="none" stroke="#c06d37" stroke-width="2.6" stroke-linejoin="round" stroke-linecap="round"/>
    <circle cx="82.0" cy="510.3" r="4.2" fill="#bb4a4a" stroke="#fbfaf6" stroke-width="1.4"><title>2023-02-24 · LLaMA-13B · 0.002886</title></circle><circle cx="94.9" cy="484.7" r="4.2" fill="#bb4a4a" stroke="#fbfaf6" stroke-width="1.4"><title>2023-03-14 · gpt-4-0314 · 0.004179</title></circle><circle cx="407.1" cy="478.6" r="4.2" fill="#bb4a4a" stroke="#fbfaf6" stroke-width="1.4"><title>2024-05-24 · gemini-1.5-pro-001 · 0.004485</title></circle><circle cx="459.9" cy="476.4" r="4.2" fill="#bb4a4a" stroke="#fbfaf6" stroke-width="1.4"><title>2024-08-06 · gpt-4o-2024-08-06 · 0.004598</title></circle><circle cx="481.4" cy="474.6" r="4.2" fill="#bb4a4a" stroke="#fbfaf6" stroke-width="1.4"><title>2024-09-05 · Kimi-K2-Instruct-0905 · 0.004687</title></circle><circle cx="501.4" cy="440.3" r="4.2" fill="#bb4a4a" stroke="#fbfaf6" stroke-width="1.4"><title>2024-10-03 · gemini-1.5-flash-8b-001 · 0.006419</title></circle><circle cx="640.7" cy="422.2" r="4.2" fill="#bb4a4a" stroke="#fbfaf6" stroke-width="1.4"><title>2025-04-16 · o3-2025-04-16_medium · 0.007333</title></circle><circle cx="721.4" cy="357.5" r="4.2" fill="#bb4a4a" stroke="#fbfaf6" stroke-width="1.4"><title>2025-08-07 · gpt-5-2025-08-07_high · 0.010597</title></circle><circle cx="786.4" cy="232.5" r="4.2" fill="#bb4a4a" stroke="#fbfaf6" stroke-width="1.4"><title>2025-11-06 · kimi-k2-thinking · 0.016904</title></circle><circle cx="915.0" cy="58.0" r="4.2" fill="#bb4a4a" stroke="#fbfaf6" stroke-width="1.4"><title>2026-05-05 · Claude Mythos Preview · 0.025713</title></circle><circle cx="82.0" cy="510.0" r="4.2" fill="#2f6f9f" stroke="#fbfaf6" stroke-width="1.4"><title>2023-02-24 · LLaMA-13B · 0.002902</title></circle><circle cx="94.9" cy="484.9" r="4.2" fill="#2f6f9f" stroke="#fbfaf6" stroke-width="1.4"><title>2023-03-14 · gpt-4-0314 · 0.004170</title></circle><circle cx="407.1" cy="478.0" r="4.2" fill="#2f6f9f" stroke="#fbfaf6" stroke-width="1.4"><title>2024-05-24 · gemini-1.5-pro-001 · 0.004519</title></circle><circle cx="459.9" cy="476.8" r="4.2" fill="#2f6f9f" stroke="#fbfaf6" stroke-width="1.4"><title>2024-08-06 · gpt-4o-2024-08-06 · 0.004577</title></circle><circle cx="481.4" cy="474.8" r="4.2" fill="#2f6f9f" stroke="#fbfaf6" stroke-width="1.4"><title>2024-09-05 · Kimi-K2-Instruct-0905 · 0.004679</title></circle><circle cx="501.4" cy="441.7" r="4.2" fill="#2f6f9f" stroke="#fbfaf6" stroke-width="1.4"><title>2024-10-03 · gemini-1.5-flash-8b-001 · 0.006347</title></circle><circle cx="640.7" cy="417.5" r="4.2" fill="#2f6f9f" stroke="#fbfaf6" stroke-width="1.4"><title>2025-04-16 · o3-2025-04-16_medium · 0.007571</title></circle><circle cx="721.4" cy="361.5" r="4.2" fill="#2f6f9f" stroke="#fbfaf6" stroke-width="1.4"><title>2025-08-07 · gpt-5-2025-08-07_high · 0.010394</title></circle><circle cx="786.4" cy="240.9" r="4.2" fill="#2f6f9f" stroke="#fbfaf6" stroke-width="1.4"><title>2025-11-06 · kimi-k2-thinking · 0.016480</title></circle><circle cx="915.0" cy="71.8" r="4.2" fill="#2f6f9f" stroke="#fbfaf6" stroke-width="1.4"><title>2026-05-05 · Claude Mythos Preview · 0.025017</title></circle><circle cx="82.0" cy="510.2" r="4.2" fill="#7c6a2f" stroke="#fbfaf6" stroke-width="1.4"><title>2023-02-24 · LLaMA-13B · 0.002894</title></circle><circle cx="94.9" cy="484.8" r="4.2" fill="#7c6a2f" stroke="#fbfaf6" stroke-width="1.4"><title>2023-03-14 · gpt-4-0314 · 0.004173</title></circle><circle cx="407.1" cy="478.5" r="4.2" fill="#7c6a2f" stroke="#fbfaf6" stroke-width="1.4"><title>2024-05-24 · gemini-1.5-pro-001 · 0.004490</title></circle><circle cx="459.9" cy="477.5" r="4.2" fill="#7c6a2f" stroke="#fbfaf6" stroke-width="1.4"><title>2024-08-06 · gpt-4o-2024-08-06 · 0.004544</title></circle><circle cx="481.4" cy="475.4" r="4.2" fill="#7c6a2f" stroke="#fbfaf6" stroke-width="1.4"><title>2024-09-05 · Kimi-K2-Instruct-0905 · 0.004645</title></circle><circle cx="501.4" cy="441.3" r="4.2" fill="#7c6a2f" stroke="#fbfaf6" stroke-width="1.4"><title>2024-10-03 · gemini-1.5-flash-8b-001 · 0.006371</title></circle><circle cx="640.7" cy="419.5" r="4.2" fill="#7c6a2f" stroke="#fbfaf6" stroke-width="1.4"><title>2025-04-16 · o3-2025-04-16_medium · 0.007467</title></circle><circle cx="721.4" cy="364.1" r="4.2" fill="#7c6a2f" stroke="#fbfaf6" stroke-width="1.4"><title>2025-08-07 · gpt-5-2025-08-07_high · 0.010263</title></circle><circle cx="786.4" cy="252.1" r="4.2" fill="#7c6a2f" stroke="#fbfaf6" stroke-width="1.4"><title>2025-11-06 · kimi-k2-thinking · 0.015918</title></circle><circle cx="815.7" cy="250.9" r="4.2" fill="#7c6a2f" stroke="#fbfaf6" stroke-width="1.4"><title>2025-12-17 · gemini-3-flash-preview_high · 0.015980</title></circle><circle cx="915.0" cy="81.6" r="4.2" fill="#7c6a2f" stroke="#fbfaf6" stroke-width="1.4"><title>2026-05-05 · Claude Mythos Preview · 0.024521</title></circle><circle cx="82.0" cy="510.6" r="4.2" fill="#5d7d58" stroke="#fbfaf6" stroke-width="1.4"><title>2023-02-24 · LLaMA-13B · 0.002872</title></circle><circle cx="94.9" cy="485.4" r="4.2" fill="#5d7d58" stroke="#fbfaf6" stroke-width="1.4"><title>2023-03-14 · gpt-4-0314 · 0.004143</title></circle><circle cx="407.1" cy="479.4" r="4.2" fill="#5d7d58" stroke="#fbfaf6" stroke-width="1.4"><title>2024-05-24 · gemini-1.5-pro-001 · 0.004447</title></circle><circle cx="459.9" cy="477.3" r="4.2" fill="#5d7d58" stroke="#fbfaf6" stroke-width="1.4"><title>2024-08-06 · gpt-4o-2024-08-06 · 0.004553</title></circle><circle cx="481.4" cy="475.4" r="4.2" fill="#5d7d58" stroke="#fbfaf6" stroke-width="1.4"><title>2024-09-05 · Kimi-K2-Instruct-0905 · 0.004646</title></circle><circle cx="501.4" cy="441.9" r="4.2" fill="#5d7d58" stroke="#fbfaf6" stroke-width="1.4"><title>2024-10-03 · gemini-1.5-flash-8b-001 · 0.006340</title></circle><circle cx="640.7" cy="423.3" r="4.2" fill="#5d7d58" stroke="#fbfaf6" stroke-width="1.4"><title>2025-04-16 · o3-2025-04-16_medium · 0.007275</title></circle><circle cx="721.4" cy="360.9" r="4.2" fill="#5d7d58" stroke="#fbfaf6" stroke-width="1.4"><title>2025-08-07 · gpt-5-2025-08-07_high · 0.010426</title></circle><circle cx="786.4" cy="238.7" r="4.2" fill="#5d7d58" stroke="#fbfaf6" stroke-width="1.4"><title>2025-11-06 · kimi-k2-thinking · 0.016591</title></circle><circle cx="915.0" cy="67.9" r="4.2" fill="#5d7d58" stroke="#fbfaf6" stroke-width="1.4"><title>2026-05-05 · Claude Mythos Preview · 0.025212</title></circle><circle cx="82.0" cy="546.0" r="4.2" fill="#8e6ab3" stroke="#fbfaf6" stroke-width="1.4"><title>2023-02-24 · LLaMA-13B · 0.001084</title></circle><circle cx="94.9" cy="522.1" r="4.2" fill="#8e6ab3" stroke="#fbfaf6" stroke-width="1.4"><title>2023-03-14 · gpt-4-0314 · 0.002290</title></circle><circle cx="321.3" cy="520.3" r="4.2" fill="#8e6ab3" stroke="#fbfaf6" stroke-width="1.4"><title>2024-01-25 · gpt-4-0125-preview · 0.002383</title></circle><circle cx="384.9" cy="516.6" r="4.2" fill="#8e6ab3" stroke="#fbfaf6" stroke-width="1.4"><title>2024-04-23 · Phi-3-small-8k-instruct · 0.002566</title></circle><circle cx="459.9" cy="514.6" r="4.2" fill="#8e6ab3" stroke="#fbfaf6" stroke-width="1.4"><title>2024-08-06 · gpt-4o-2024-08-06 · 0.002667</title></circle><circle cx="486.4" cy="494.3" r="4.2" fill="#8e6ab3" stroke="#fbfaf6" stroke-width="1.4"><title>2024-09-12 · o1-mini-2024-09-12_medium · 0.003692</title></circle><circle cx="501.4" cy="441.2" r="4.2" fill="#8e6ab3" stroke="#fbfaf6" stroke-width="1.4"><title>2024-10-03 · gemini-1.5-flash-8b-001 · 0.006375</title></circle><circle cx="861.4" cy="435.0" r="4.2" fill="#8e6ab3" stroke="#fbfaf6" stroke-width="1.4"><title>2026-02-19 · gemini-3.1-pro-preview_high · 0.006689</title></circle><circle cx="915.0" cy="261.9" r="4.2" fill="#8e6ab3" stroke="#fbfaf6" stroke-width="1.4"><title>2026-05-05 · Claude Mythos Preview · 0.015421</title></circle><circle cx="82.0" cy="518.4" r="4.2" fill="#c06d37" stroke="#fbfaf6" stroke-width="1.4"><title>2023-02-24 · LLaMA-13B · 0.002480</title></circle><circle cx="94.9" cy="488.7" r="4.2" fill="#c06d37" stroke="#fbfaf6" stroke-width="1.4"><title>2023-03-14 · gpt-4-0314 · 0.003976</title></circle><circle cx="184.9" cy="487.7" r="4.2" fill="#c06d37" stroke="#fbfaf6" stroke-width="1.4"><title>2023-07-18 · Llama-2-70b-hf  · 0.004029</title></circle><circle cx="407.1" cy="477.7" r="4.2" fill="#c06d37" stroke="#fbfaf6" stroke-width="1.4"><title>2024-05-24 · gemini-1.5-pro-001 · 0.004534</title></circle><circle cx="459.9" cy="475.5" r="4.2" fill="#c06d37" stroke="#fbfaf6" stroke-width="1.4"><title>2024-08-06 · gpt-4o-2024-08-06 · 0.004641</title></circle><circle cx="501.4" cy="431.2" r="4.2" fill="#c06d37" stroke="#fbfaf6" stroke-width="1.4"><title>2024-10-03 · gemini-1.5-flash-8b-001 · 0.006878</title></circle><circle cx="861.4" cy="400.6" r="4.2" fill="#c06d37" stroke="#fbfaf6" stroke-width="1.4"><title>2026-02-19 · gemini-3.1-pro-preview_high · 0.008421</title></circle><circle cx="915.0" cy="246.6" r="4.2" fill="#c06d37" stroke="#fbfaf6" stroke-width="1.4"><title>2026-05-05 · Claude Mythos Preview · 0.016197</title></circle>
    <line x1="939" y1="58" x2="963" y2="58" stroke="#bb4a4a" stroke-width="3"/><text x="971" y="62">Quantitative-Formal</text><text x="971" y="76" font-size="10" fill="#697176">0.025713 · Claude Mythos Preview</text><line x1="939" y1="84" x2="963" y2="84" stroke="#2f6f9f" stroke-width="3"/><text x="971" y="88">Logical-Control</text><text x="971" y="102" font-size="10" fill="#697176">0.025017 · Claude Mythos Preview</text><line x1="939" y1="110" x2="963" y2="110" stroke="#7c6a2f" stroke-width="3"/><text x="971" y="114">Abstraction-Learning</text><text x="971" y="128" font-size="10" fill="#697176">0.024521 · Claude Mythos Preview</text><line x1="939" y1="136" x2="963" y2="136" stroke="#5d7d58" stroke-width="3"/><text x="971" y="140">Search-Load</text><text x="971" y="154" font-size="10" fill="#697176">0.025212 · Claude Mythos Preview</text><line x1="939" y1="162" x2="963" y2="162" stroke="#8e6ab3" stroke-width="3"/><text x="971" y="166">Coding</text><text x="971" y="180" font-size="10" fill="#697176">0.015421 · Claude Mythos Preview</text><line x1="939" y1="188" x2="963" y2="188" stroke="#c06d37" stroke-width="3"/><text x="971" y="192">Science</text><text x="971" y="206" font-size="10" fill="#697176">0.016197 · Claude Mythos Preview</text>
    <text x="498.5" y="608" text-anchor="middle">release date</text>
    <text x="18" y="302.0" transform="rotate(-90 18 302.0)" text-anchor="middle">frontier tag score</text>
  </g>
</svg>
